<svg width="144" height="21" viewBox="0 0 144 21" fill="none" xmlns="http://www.w3.org/2000/svg">
<path d="M8.18182 2.5C6.97683 2.5 6 3.47683 6 4.68182V16.3182C6 17.5232 6.97683 18.5 8.18182 18.5L8.72562 18.5V12.9695C8.72562 12.5669 8.82592 12.1705 9.01748 11.8163L13.4359 3.64637C13.7022 3.15396 14.4089 3.15431 14.6747 3.64698L19.2283 12.0866C19.3237 12.2634 19.3736 12.4612 19.3736 12.6621V18.5L19.8182 18.5C21.0232 18.5 22 17.5232 22 16.3182V4.68182C22 3.47683 21.0232 2.5 19.8182 2.5H8.18182Z" fill="#586069"/>
<path fill-rule="evenodd" clip-rule="evenodd" d="M18.6267 18.5V12.667L14.436 10.1912V18.116C14.436 18.3273 14.6088 18.4987 14.8198 18.5L18.6267 18.5ZM16.6719 18.276C17.0518 18.276 17.3599 17.9107 17.3599 17.46C17.3599 17.0093 17.0518 16.644 16.6719 16.644C16.2919 16.644 15.9839 17.0093 15.9839 17.46C15.9839 17.9107 16.2919 18.276 16.6719 18.276ZM17.4239 13.3181C17.4239 13.1225 17.5824 12.964 17.7779 12.964C17.9735 12.964 18.132 13.1225 18.132 13.3181V15.8003C18.132 15.9959 17.9735 16.1544 17.7779 16.1544C17.5824 16.1544 17.4239 15.9959 17.4239 15.8003V13.3181ZM16.6563 12.292C16.4617 12.292 16.3039 12.4498 16.3039 12.6445V15.1834C16.3039 15.378 16.4617 15.5358 16.6563 15.5358C16.851 15.5358 17.0088 15.378 17.0088 15.1834V12.6445C17.0088 12.4498 16.851 12.292 16.6563 12.292ZM15.204 12.0899C15.204 11.8922 15.3643 11.732 15.5619 11.732C15.7596 11.732 15.9198 11.8922 15.9198 12.0899V14.6394C15.9198 14.837 15.7596 14.9973 15.5619 14.9973C15.3643 14.9973 15.204 14.837 15.204 14.6394V12.0899Z" fill="#586069"/>
<path d="M14.4318 9.36401V4.78609L18.0974 11.4792L14.6078 9.42161C14.6078 9.42161 14.5558 9.39304 14.5198 9.38161C14.4864 9.37099 14.4318 9.36401 14.4318 9.36401Z" fill="#586069"/>
<path d="M32.6172 17.2109C35.4209 17.2109 37.3018 15.8135 37.8818 13.3086H36.2822C35.8252 14.8555 34.4893 15.752 32.626 15.752C30.1211 15.752 28.5303 13.7656 28.5303 10.6543C28.5303 7.56934 30.1387 5.56543 32.6172 5.56543C34.4277 5.56543 35.8779 6.65527 36.2822 8.31641H37.8818C37.4775 5.78516 35.377 4.10645 32.6172 4.10645C29.1455 4.10645 26.9043 6.67285 26.9043 10.6543C26.9043 14.6709 29.1191 17.2109 32.6172 17.2109ZM43.3047 17.1582C45.8271 17.1582 47.5322 15.3389 47.5322 12.4297C47.5322 9.51172 45.8271 7.70117 43.3047 7.70117C40.7734 7.70117 39.0684 9.51172 39.0684 12.4297C39.0684 15.3389 40.7734 17.1582 43.3047 17.1582ZM43.3047 15.8135C41.6875 15.8135 40.624 14.583 40.624 12.4297C40.624 10.2764 41.6875 9.0459 43.3047 9.0459C44.9219 9.0459 45.9766 10.2764 45.9766 12.4297C45.9766 14.583 44.9219 15.8135 43.3047 15.8135ZM49.0791 17H50.6084V11.3047C50.6084 10.0127 51.3818 9.16016 52.5684 9.16016C52.9375 9.16016 53.2627 9.2041 53.3857 9.24805V7.7627C53.2627 7.74512 53.0342 7.70117 52.7705 7.70117C51.6982 7.70117 50.8545 8.34277 50.5557 9.35352H50.5205V7.85938H49.0791V17ZM54.6338 17H56.1631V11.6211C56.1631 10.0742 57.1035 9.05469 58.5449 9.05469C59.9512 9.05469 60.6455 9.86328 60.6455 11.3398V17H62.1748V11.0674C62.1748 8.99316 61.0146 7.70117 59.0107 7.70117C57.5957 7.70117 56.6201 8.33398 56.1104 9.31836H56.0752V7.85938H54.6338V17ZM70.1904 14.3809C69.9355 15.2422 69.083 15.8311 67.9229 15.8311C66.2793 15.8311 65.251 14.6797 65.251 12.9307V12.8428H71.8076V12.2627C71.8076 9.49414 70.2871 7.70117 67.8174 7.70117C65.2949 7.70117 63.6777 9.62598 63.6777 12.4648C63.6777 15.3389 65.2686 17.1582 67.8877 17.1582C69.8828 17.1582 71.4297 15.9805 71.6934 14.3809H70.1904ZM67.791 9.02832C69.2324 9.02832 70.1904 10.1182 70.2256 11.6475H65.2598C65.3564 10.127 66.3584 9.02832 67.791 9.02832ZM73.4336 17H74.9629V4.31738H73.4336V17ZM77.1074 17H78.6367V4.31738H77.1074V17ZM89.1133 17H91.5039L87.0039 4.31738H84.4463L79.9463 17H82.2842L83.3652 13.7217H88.0322L89.1133 17ZM85.668 6.55859H85.7295L87.4961 11.9727H83.8926L85.668 6.55859ZM97.7617 7.52539C96.4082 7.52539 95.3535 8.21094 94.8262 9.29199H94.7822V7.68359H92.6465V20.0674H94.835V15.4531H94.8789C95.3887 16.499 96.4434 17.1494 97.7969 17.1494C100.135 17.1494 101.629 15.3125 101.629 12.3418C101.629 9.3623 100.126 7.52539 97.7617 7.52539ZM97.0938 15.3564C95.7314 15.3564 94.8262 14.1699 94.8174 12.3418C94.8262 10.5312 95.7314 9.32715 97.0938 9.32715C98.5088 9.32715 99.3877 10.5049 99.3877 12.3418C99.3877 14.1875 98.5088 15.3564 97.0938 15.3564ZM108.15 7.52539C106.797 7.52539 105.742 8.21094 105.215 9.29199H105.171V7.68359H103.035V20.0674H105.224V15.4531H105.268C105.777 16.499 106.832 17.1494 108.186 17.1494C110.523 17.1494 112.018 15.3125 112.018 12.3418C112.018 9.3623 110.515 7.52539 108.15 7.52539ZM107.482 15.3564C106.12 15.3564 105.215 14.1699 105.206 12.3418C105.215 10.5312 106.12 9.32715 107.482 9.32715C108.897 9.32715 109.776 10.5049 109.776 12.3418C109.776 14.1875 108.897 15.3564 107.482 15.3564ZM113.644 4.31738V17H118.275C122.072 17 124.305 14.6445 124.305 10.6279C124.305 6.61133 122.063 4.31738 118.275 4.31738H113.644ZM115.911 6.2334H118.038C120.569 6.2334 121.993 7.79785 121.993 10.6367C121.993 13.5283 120.587 15.084 118.038 15.084H115.911V6.2334ZM132.057 14.2139C131.819 14.9873 131.046 15.4971 130.026 15.4971C128.594 15.4971 127.68 14.4951 127.68 13.001V12.8691H134.192V12.1572C134.192 9.32715 132.54 7.49023 129.895 7.49023C127.205 7.49023 125.5 9.43262 125.5 12.377C125.5 15.3477 127.188 17.1846 129.982 17.1846C132.188 17.1846 133.823 15.9717 134.104 14.2139H132.057ZM129.903 9.18652C131.16 9.18652 132.004 10.1094 132.048 11.4277H127.697C127.785 10.127 128.673 9.18652 129.903 9.18652ZM143.72 7.68359H141.435L139.272 14.9697H139.229L137.066 7.68359H134.729L138.033 17H140.441L143.72 7.68359Z" fill="#586069"/>
</svg>
