<svg width="24" height="19" viewBox="0 0 24 19" fill="none" xmlns="http://www.w3.org/2000/svg">
<path d="M8.25 5.85222V13.1341L9.66935 14.5H14.3244L15.7484 13.1478V11.3387H13.2793V12.5728H10.7209V6.41983H13.2791V7.4584H15.75V5.84701L14.3381 4.5H9.67441L8.25 5.85222Z" fill="#586069"/>
<path fill-rule="evenodd" clip-rule="evenodd" d="M24 4.5C24 2.29086 22.2091 0.5 20 0.5H4C1.79086 0.5 0 2.29086 0 4.5V14.5C0 16.7091 1.79086 18.5 4 18.5H20C22.2091 18.5 24 16.7091 24 14.5V4.5ZM6 6.5V2.5H18V6.5H22V12.5H18V16.5H6V12.5H2V6.5H6ZM20 2.5C21.1046 2.5 22 3.39543 22 4.5H20V2.5ZM2 4.5C2 3.39543 2.89543 2.5 4 2.5V4.5H2ZM4 16.5C2.89543 16.5 2 15.6046 2 14.5H4V16.5ZM22 14.5C22 15.6046 21.1046 16.5 20 16.5V14.5H22Z" fill="#586069"/>
</svg>
