<svg width="24" height="25" viewBox="0 0 24 25" fill="none" xmlns="http://www.w3.org/2000/svg">
<path d="M11.4668 7.46295C11.4668 7.29931 11.5862 7.16666 11.7335 7.16666H12.2668C12.4141 7.16666 12.5335 7.29931 12.5335 7.46295V8.39634C13.1256 8.49225 13.6402 8.74019 13.9888 9.11136C14.3025 9.43854 14.4695 9.81246 14.4695 10.1805C14.4695 10.5486 14.2468 10.7998 13.9179 10.7998C13.7054 10.7998 13.5232 10.6947 13.3613 10.461C13.0527 9.92931 12.5871 9.63134 11.99 9.63134C11.2715 9.63134 10.811 10.0286 10.811 10.6479C10.811 11.1445 11.1248 11.4951 11.7674 11.6645L12.8047 11.9508C14.0697 12.2838 14.6668 12.9908 14.6668 14.1651C14.6668 15.503 13.8543 16.4103 12.5335 16.6077V17.537C12.5335 17.7007 12.4141 17.8333 12.2668 17.8333H11.7335C11.5862 17.8333 11.4668 17.7007 11.4668 17.537V16.617C10.7816 16.5305 10.1923 16.2665 9.82432 15.8652C9.50554 15.5264 9.3335 15.17 9.3335 14.837C9.3335 14.4397 9.57132 14.1592 9.87999 14.1592C10.1077 14.1592 10.2949 14.2703 10.5378 14.5741C10.9274 15.094 11.4436 15.3628 12.0457 15.3628C12.8553 15.3628 13.3158 14.9889 13.3158 14.3404C13.3158 13.8029 12.9919 13.4698 12.243 13.2654L11.2108 12.9732C10.0217 12.6577 9.42964 11.9274 9.42964 10.7706C9.42964 9.47082 10.2168 8.57493 11.4668 8.38809V7.46295Z" fill="#586069"/>
<path fill-rule="evenodd" clip-rule="evenodd" d="M11.1335 7.46295C11.1335 7.14912 11.37 6.83332 11.7335 6.83332H12.2668C12.6304 6.83332 12.8668 7.14912 12.8668 7.46295V8.12422C13.4023 8.25599 13.8812 8.51046 14.2306 8.88189C14.5893 9.2565 14.8028 9.70893 14.8028 10.1805C14.8028 10.431 14.7265 10.6694 14.5661 10.8497C14.4028 11.0334 14.1725 11.1332 13.9179 11.1332C13.5683 11.1332 13.2938 10.9488 13.0873 10.6508L13.0797 10.6399L13.0731 10.6283C12.8166 10.1866 12.4542 9.96467 11.99 9.96467C11.6901 9.96467 11.4792 10.0473 11.3488 10.1598C11.2235 10.2679 11.1444 10.4267 11.1444 10.6479C11.1444 10.8198 11.1961 10.9483 11.2924 11.052C11.3948 11.1622 11.5697 11.2677 11.8524 11.3422L11.8561 11.3432L12.8915 11.629C13.5641 11.8063 14.0995 12.0934 14.4652 12.5278C14.8347 12.9667 15.0002 13.5194 15.0002 14.1651C15.0002 14.9035 14.7747 15.5465 14.3458 16.0342C13.9747 16.4562 13.4675 16.7437 12.8668 16.8834V17.537C12.8668 17.8509 12.6304 18.1667 12.2668 18.1667H11.7335C11.37 18.1667 11.1335 17.8509 11.1335 17.537V16.9C10.5124 16.7744 9.95813 16.5035 9.58012 16.0921C9.22855 15.7179 9.00016 15.2844 9.00016 14.837C9.00016 14.3211 9.32793 13.8259 9.87999 13.8259C10.2563 13.8259 10.5291 14.0294 10.7982 14.3659L10.8047 14.3741C11.1367 14.8172 11.5571 15.0295 12.0457 15.0295C12.4046 15.0295 12.6379 14.946 12.775 14.8354C12.9019 14.733 12.9825 14.5789 12.9825 14.3404C12.9825 14.1469 12.9279 14.0179 12.8236 13.9127C12.7077 13.7959 12.5036 13.682 12.1552 13.5869L12.1523 13.5861L11.1226 13.2947C10.4819 13.1243 9.96775 12.8328 9.61516 12.3971C9.26036 11.9586 9.0963 11.4075 9.0963 10.7706C9.0963 10.0518 9.31503 9.42254 9.72691 8.94443C10.0812 8.5332 10.564 8.25048 11.1335 8.11353V7.46295Z" fill="#586069"/>
<path fill-rule="evenodd" clip-rule="evenodd" d="M4 3.5H20C22.2091 3.5 24 5.29086 24 7.5V17.5C24 19.7091 22.2091 21.5 20 21.5H4C1.79086 21.5 0 19.7091 0 17.5V7.5C0 5.29086 1.79086 3.5 4 3.5ZM20 5.5H19.1683C19.2141 5.67519 19.2718 5.84742 19.3414 6.01543C19.5404 6.49588 19.8321 6.93242 20.1999 7.30014C20.5676 7.66786 21.0041 7.95955 21.4846 8.15856C21.6526 8.22815 21.8248 8.28594 22 8.33166V7.5C22 6.39543 21.1046 5.5 20 5.5ZM6.91608 5.5H17.0839C17.1413 5.83975 17.228 6.17434 17.3431 6.5C17.3783 6.59957 17.4162 6.69831 17.4567 6.7961C17.7583 7.52405 18.2002 8.18549 18.7574 8.74264C19.3145 9.29979 19.9759 9.74175 20.7039 10.0433C20.8017 10.0838 20.9004 10.1217 21 10.1569C21.3257 10.272 21.6603 10.3587 22 10.4161V14.5839C21.6589 14.6416 21.3243 14.7285 21 14.8431C20.1642 15.1387 19.3962 15.6185 18.7574 16.2574C18.1185 16.8962 17.6387 17.6642 17.3431 18.5C17.2285 18.8243 17.1416 19.1589 17.0839 19.5H6.91608C6.85865 19.1603 6.77199 18.8257 6.65685 18.5C6.62165 18.4004 6.58379 18.3017 6.54328 18.2039C6.24175 17.4759 5.79979 16.8145 5.24264 16.2574C4.68549 15.7002 4.02405 15.2583 3.2961 14.9567C3.19831 14.9162 3.09957 14.8783 3 14.8431C2.67434 14.728 2.33975 14.6413 2 14.5839V10.4161C2.33975 10.3587 2.67434 10.272 3 10.1569C3.09957 10.1217 3.19831 10.0838 3.2961 10.0433C4.02405 9.74175 4.68549 9.29979 5.24264 8.74264C5.79979 8.18549 6.24175 7.52405 6.54328 6.7961C6.58378 6.69831 6.62165 6.59957 6.65685 6.5C6.77199 6.17434 6.85865 5.83975 6.91608 5.5ZM19.1683 19.5H20C21.1046 19.5 22 18.6046 22 17.5V16.6683C21.3247 16.8446 20.7018 17.1979 20.1999 17.6999C19.6979 18.2018 19.3446 18.8247 19.1683 19.5ZM4.83166 19.5C4.78594 19.3248 4.72816 19.1526 4.65856 18.9846C4.45955 18.5041 4.16786 18.0676 3.80014 17.6999C3.43242 17.3321 2.99588 17.0404 2.51543 16.8414C2.34742 16.7718 2.17519 16.7141 2 16.6683V17.5C2 18.6046 2.89543 19.5 4 19.5H4.83166ZM4 5.5H4.83166C4.78594 5.67519 4.72815 5.84742 4.65856 6.01543C4.45955 6.49588 4.16786 6.93242 3.80014 7.30014C3.43242 7.66786 2.99588 7.95955 2.51543 8.15856C2.34742 8.22815 2.17519 8.28594 2 8.33166V7.5C2 6.39543 2.89543 5.5 4 5.5Z" fill="#586069"/>
</svg>
