<svg width="96" height="96" viewBox="0 0 96 96" fill="none" xmlns="http://www.w3.org/2000/svg">
<path fill-rule="evenodd" clip-rule="evenodd" d="M48 5C40.268 5 34 11.0442 34 18.5C34 20.9589 34.6818 23.2643 35.873 25.25C36.7827 26.7666 43.3768 35.1539 46.4416 39.0322C47.2397 40.0421 48.7603 40.0421 49.5584 39.0322C52.6232 35.1539 59.2173 26.7666 60.127 25.25C61.3182 23.2643 62 20.9589 62 18.5C62 11.0442 55.732 5 48 5ZM54 19C54 22.3137 51.3137 25 48 25C44.6863 25 42 22.3137 42 19C42 15.6863 44.6863 13 48 13C51.3137 13 54 15.6863 54 19ZM65.4881 28.4432C66.1872 27.3416 67.6526 27.009 68.7046 27.7808C74.1518 31.7773 78.3406 37.277 80.7405 43.6284C83.4196 50.7183 83.7248 58.4864 81.6103 65.7647C79.4957 73.043 75.0757 79.4382 69.0147 83.989C62.9537 88.5397 55.5792 91 48 91C40.4207 91 33.0463 88.5397 26.9853 83.9889C20.9243 79.4382 16.5043 73.043 14.3897 65.7647C12.2752 58.4864 12.5804 50.7183 15.2595 43.6284C17.6594 37.277 21.8483 31.7773 27.2954 27.7808C28.3474 27.009 29.8128 27.3416 30.512 28.4432C31.2111 29.5449 30.8782 30.9975 29.8344 31.7804C25.2474 35.2207 21.7176 39.9046 19.6794 45.2985C17.362 51.4314 17.098 58.1507 18.9271 64.4464C20.7562 70.7422 24.5795 76.2741 29.8223 80.2104C35.065 84.1468 41.4439 86.275 48 86.275C54.556 86.275 60.9349 84.1468 66.1777 80.2104C71.4205 76.2741 75.2438 70.7422 77.0729 64.4465C78.902 58.1507 78.638 51.4314 76.3206 45.2986C74.2824 39.9046 70.7526 35.2208 66.1656 31.7804C65.1218 30.9975 64.7889 29.5449 65.4881 28.4432ZM37.7923 34.7092C36.6428 33.0999 34.469 32.5466 32.8337 33.6588C25.6912 38.517 21 46.7106 21 56C21 70.9117 33.0883 83 48 83C62.9117 83 75 70.9117 75 56C75 46.7106 70.3088 38.517 63.1663 33.6588C61.531 32.5466 59.3572 33.0999 58.2077 34.7092L49.6275 46.7216C48.8298 47.8382 47.1702 47.8382 46.3725 46.7215L37.7923 34.7092ZM62 53C64.2091 53 66 51.2091 66 49C66 46.7909 64.2091 45 62 45C59.7909 45 58 46.7909 58 49C58 51.2091 59.7909 53 62 53ZM38 49C38 51.2091 36.2091 53 34 53C31.7909 53 30 51.2091 30 49C30 46.7909 31.7909 45 34 45C36.2091 45 38 46.7909 38 49ZM52 57C52 59.2091 50.2091 61 48 61C45.7909 61 44 59.2091 44 57C44 54.7909 45.7909 53 48 53C50.2091 53 52 54.7909 52 57ZM52 71C52 73.2091 50.2091 75 48 75C45.7909 75 44 73.2091 44 71C44 68.7909 45.7909 67 48 67C50.2091 67 52 68.7909 52 71ZM34 67C36.2091 67 38 65.2091 38 63C38 60.7909 36.2091 59 34 59C31.7909 59 30 60.7909 30 63C30 65.2091 31.7909 67 34 67ZM66 63C66 65.2091 64.2091 67 62 67C59.7909 67 58 65.2091 58 63C58 60.7909 59.7909 59 62 59C64.2091 59 66 60.7909 66 63Z" fill="#4A90E2"/>
</svg>
