<svg width="481" height="115" viewBox="0 0 481 115" fill="none" xmlns="http://www.w3.org/2000/svg">
<path d="M50.4375 80.2812H19.7812V63.2188H48.7031V52.3438H19.7812V36.0312H50.4375V24.3594H5.625V92H50.4375V80.2812ZM74.1094 92.7969C80.3906 92.7969 86.625 89.6562 89.4375 84.3125H89.7188V92H102.938V57.4531C102.938 47.3281 94.5469 40.6719 81.6562 40.6719C68.3438 40.6719 60.0469 47.375 59.5312 57.125H72.0469C72.7031 53.4219 75.9375 50.8906 81.0469 50.8906C86.2031 50.8906 89.4844 53.6094 89.4844 58.2969V61.625L76.8281 62.375C64.3125 63.125 57.2812 68.4219 57.2812 77.5625C57.2812 86.6094 64.5469 92.7969 74.1094 92.7969ZM78.6094 82.9062C73.9688 82.9062 70.875 80.5625 70.875 76.8125C70.875 73.25 73.7812 70.9531 78.8906 70.5781L89.4844 69.9219V73.5781C89.4844 79.0156 84.5625 82.9062 78.6094 82.9062ZM115.453 30.1719V41.75H108.375V52.0625H115.453V78.4531C115.453 88.25 120.047 92.1875 131.859 92.1875C134.625 92.1875 136.969 91.9531 138.375 91.625V81.5469C137.531 81.6875 136.266 81.7812 135.047 81.7812C131.016 81.7812 129.141 79.9531 129.141 76.1094V52.0625H138.422V41.75H129.141V30.1719H115.453ZM178.453 76.625C177.188 80.4688 173.344 82.9531 168.328 82.9531C161.344 82.9531 156.797 78.0312 156.797 70.8594V70.0156H191.438V65.8438C191.438 50.5625 182.203 40.6719 167.578 40.6719C152.719 40.6719 143.344 51.0781 143.344 67.1094C143.344 83.1875 152.625 93.0781 168.094 93.0781C180.516 93.0781 189.516 86.4688 191.016 76.625H178.453ZM167.719 50.7969C173.812 50.7969 177.984 55.2031 178.266 61.625H156.938C157.406 55.3438 161.719 50.7969 167.719 50.7969ZM198.516 92H212.203V63.9219C212.203 56.8438 216.141 52.7188 222.891 52.7188C224.859 52.7188 226.734 53.0469 227.859 53.5156V41.4688C226.922 41.1875 225.562 40.9531 223.969 40.9531C218.062 40.9531 213.797 44.4219 212.016 50.7969H211.734V41.75H198.516V92ZM239.953 110.609C252.75 110.609 259.078 105.969 263.344 93.0781L280.641 41.75H266.203L255.562 81.0312H255.281L244.594 41.75H229.594L247.078 92C247.125 92.2344 246.609 94.2031 246.609 94.4375C245.672 98.4219 243.188 100.016 238.219 100.016C237.703 100.016 235.219 99.9688 234.75 99.875V110.469C235.219 110.562 239.438 110.609 239.953 110.609Z" fill="#4A90E2"/>
<path d="M318.828 93.125C332.984 93.125 343.812 84.7344 346.391 71.7969L346.484 71.3281H337.953L337.812 71.75C334.859 80.6562 328.297 85.3438 318.828 85.3438C305.375 85.3438 296.609 74.6094 296.609 58.1562V58.1094C296.609 41.6562 305.328 31.0156 318.828 31.0156C328.344 31.0156 335 35.7969 337.625 44L337.953 45.0312H346.484L346.391 44.5625C343.812 31.7656 332.891 23.2344 318.828 23.2344C299.984 23.2344 287.938 36.8281 287.938 58.1094V58.1562C287.938 79.4375 300.031 93.125 318.828 93.125ZM355.625 92H363.781V63.5469C363.781 55.25 368.797 49.5312 376.344 49.5312C383.938 49.5312 388.438 54.7344 388.438 63.5469V92H396.594V62.1406C396.594 50.3281 389.516 42.3125 379.156 42.3125C371.891 42.3125 366.594 45.5469 363.969 51.0312H363.781V24.3594H355.625V92ZM427.016 92.9375C437.656 92.9375 445.625 86.5625 447.219 78.5L447.312 78.0312H439.297L439.156 78.4531C437.75 82.625 433.391 85.7188 427.203 85.7188C418.531 85.7188 413 79.8594 412.812 69.8281H447.922V66.8281C447.922 52.2031 439.812 42.3125 426.5 42.3125C413.188 42.3125 404.562 52.6719 404.562 67.7656V67.8125C404.562 83.1406 413 92.9375 427.016 92.9375ZM426.453 49.5312C433.578 49.5312 438.828 53.9844 439.625 63.4531H412.953C413.844 54.3594 419.375 49.5312 426.453 49.5312ZM458.797 92H466.953V50H476.891V43.25H466.859V37.2969C466.859 32.4688 469.109 30.1719 473.609 30.1719C474.875 30.1719 476.141 30.2188 477.125 30.3594V23.75C475.906 23.5625 473.984 23.4219 472.156 23.4219C463.156 23.4219 458.797 27.875 458.797 37.25V43.25H452V50H458.797V92Z" fill="#4A90E2"/>
</svg>
