<svg width="24" height="19" viewBox="0 0 24 19" fill="none" xmlns="http://www.w3.org/2000/svg">
<path d="M10 6.5C10 5.94772 10.4477 5.5 11 5.5H19C19.5523 5.5 20 5.94772 20 6.5C20 7.05228 19.5523 7.5 19 7.5H11C10.4477 7.5 10 7.05228 10 6.5Z" fill="#586069"/>
<path d="M8 6.5C8 7.60457 7.10457 8.5 6 8.5C4.89543 8.5 4 7.60457 4 6.5C4 5.39543 4.89543 4.5 6 4.5C7.10457 4.5 8 5.39543 8 6.5Z" fill="#586069"/>
<path fill-rule="evenodd" clip-rule="evenodd" d="M24 4.5C24 2.29086 22.2091 0.5 20 0.5H4C1.79086 0.5 0 2.29086 0 4.5V14.5C0 16.7091 1.79086 18.5 4 18.5H20C22.2091 18.5 24 16.7091 24 14.5V4.5ZM22 13.5H2V14.5C2 15.6046 2.89543 16.5 4 16.5H20C21.1046 16.5 22 15.6046 22 14.5V13.5ZM22 11.5H2V4.5C2 3.39543 2.89543 2.5 4 2.5H20C21.1046 2.5 22 3.39543 22 4.5V11.5Z" fill="#586069"/>
</svg>
